<?xml version="1.0" encoding="UTF-8"?>
<svg id="Layer_1" data-name="Layer 1" xmlns="http://www.w3.org/2000/svg" xmlns:xlink="http://www.w3.org/1999/xlink" viewBox="0 0 124.26 216">
  <defs>
    <style>
      .cls-1 {
        fill: url(#linear-gradient-3);
      }

      .cls-1, .cls-2 {
        fill-rule: evenodd;
      }

      .cls-2 {
        fill: #fff;
      }

      .cls-3 {
        fill: url(#linear-gradient-2);
      }

      .cls-4 {
        fill: url(#linear-gradient);
      }

      .cls-5 {
        fill: #bcbcbc;
      }

      .cls-6 {
        fill: #8c8c8c;
      }

      .cls-7 {
        fill: #00a0e3;
      }
    </style>
    <linearGradient id="linear-gradient" x1="77.98" y1="98.34" x2="77.98" y2="142.61" gradientUnits="userSpaceOnUse">
      <stop offset=".05" stop-color="#fff"/>
      <stop offset=".09" stop-color="#fefefe"/>
      <stop offset="1" stop-color="#eaebec"/>
    </linearGradient>
    <linearGradient id="linear-gradient-2" x1="77.98" y1="98.34" x2="77.98" y2="142.61" gradientUnits="userSpaceOnUse">
      <stop offset=".05" stop-color="#f7f7f7"/>
      <stop offset=".47" stop-color="#e4e4e5"/>
      <stop offset="1" stop-color="#d0d2d3"/>
    </linearGradient>
    <linearGradient id="linear-gradient-3" x1="46.04" y1="71.39" x2="46.04" y2="115.66" gradientUnits="userSpaceOnUse">
      <stop offset="0" stop-color="#00b8f1"/>
      <stop offset=".02" stop-color="#00b5ef"/>
      <stop offset=".31" stop-color="#0d90d8"/>
      <stop offset=".58" stop-color="#1675c8"/>
      <stop offset=".82" stop-color="#1c64be"/>
      <stop offset="1" stop-color="#1e5fbb"/>
    </linearGradient>
  </defs>
  <g>
    <g>
      <polygon class="cls-5" points="122.73 142.61 1.3 115.66 1.3 71.39 122.73 98.34 122.73 142.61"/>
      <g>
        <polygon class="cls-4" points="77.5 98.34 33.23 142.61 34.73 141.99 77.76 98.96 122.11 98.96 122.73 98.34 77.5 98.34"/>
        <polygon class="cls-3" points="122.73 98.34 122.11 98.96 77.76 98.96 34.73 141.99 33.23 142.61 122.73 142.61 122.73 98.34"/>
      </g>
      <g>
        <path class="cls-6" d="M25.26,139.57h2.22v.46h-.85v2.58h-.53v-2.58h-.84v-.46Z"/>
        <path class="cls-6" d="M30.54,140.21h0l-.88,2.4h-.44l-.87-2.4h0v2.4h-.54v-3.03h.82l.81,2.23.82-2.23h.82v3.03h-.54v-2.4Z"/>
      </g>
    </g>
    <g>
      <g>
        <path class="cls-7" d="M67.8,133.91v-10.31h3.75c2.2,0,4.21.59,4.21,3.3s-2.17,3.35-4.24,3.35h-1.46v3.67h-2.26ZM70.06,128.49h1.55c1.41,0,1.94-.54,1.94-1.53s-.51-1.51-1.94-1.51h-1.55v3.04Z"/>
        <path class="cls-7" d="M76.02,132.01c0-1.71,1.45-2.66,4.71-2.93v-.18c0-.54-.28-.89-1-.89-.95,0-1.76.39-2.44.92l-.95-1.28c.74-.67,1.85-1.33,3.71-1.33,2.03,0,2.87,1,2.87,2.92v2.86c0,.89.06,1.43.21,1.81h-2.23c-.1-.31-.17-.67-.17-1.09-.68.77-1.49,1.2-2.59,1.2s-2.12-.74-2.12-2.01ZM80.73,131.69v-1.38c-1.77.18-2.52.63-2.52,1.31,0,.47.33.71.82.71.78,0,1.32-.26,1.7-.64Z"/>
        <path class="cls-7" d="M84.55,133.91v-7.43h2.24v1.24h.01c.4-.63,1.12-1.4,2.51-1.4h.07l-.03,2c-.08-.01-.45-.04-.59-.04-.89,0-1.56.48-1.98,1.02v4.61h-2.24Z"/>
        <path class="cls-7" d="M91.15,131.82v-3.71h-1.24v-1.63h1.24v-2.55h2.23v2.55h1.91v1.63h-1.91v3.22c0,.79.22,1.05,1.03,1.05.25,0,.59-.03.74-.09v1.6c-.17.04-.99.11-1.48.11-2.2,0-2.52-.79-2.52-2.19Z"/>
        <path class="cls-7" d="M96.52,133.91v-7.43h2.24v1.17c.45-.59,1.27-1.33,2.56-1.33s2.16.63,2.16,2.16v5.42h-2.23v-4.71c0-.67-.25-1.02-.88-1.02s-1.12.31-1.62.74v4.99h-2.24Z"/>
        <path class="cls-7" d="M104.66,130.2c0-2.89,2.2-3.88,3.74-3.88s3.41.77,3.41,4.14v.33h-4.92c.11,1.23.79,1.7,1.73,1.7.88,0,1.7-.43,2.2-.89l.86,1.34c-.86.74-1.94,1.11-3.23,1.11-1.94,0-3.79-.99-3.79-3.86ZM109.8,129.48c-.11-1.04-.59-1.55-1.42-1.55-.7,0-1.3.46-1.46,1.55h2.88Z"/>
        <path class="cls-7" d="M113.09,133.91v-7.43h2.24v1.24h.01c.4-.63,1.12-1.4,2.51-1.4h.07l-.03,2c-.08-.01-.45-.04-.59-.04-.89,0-1.56.48-1.98,1.02v4.61h-2.24Z"/>
      </g>
      <g>
        <path class="cls-7" d="M75.02,115.6c0-3.23,1.8-5.31,4.7-5.31,1.95,0,3.51.78,4.17,3.3l-2.08.57c-.43-1.43-1.09-1.99-2.1-1.99-.84,0-2.4.49-2.4,3.39s1.39,3.61,2.49,3.61,1.91-.71,2.12-1.85h-1.8v-1.69h3.96v5.17h-1.83v-1.42h-.03c-.22.61-1.13,1.62-2.69,1.62-3.12,0-4.52-2.29-4.52-5.4Z"/>
        <path class="cls-7" d="M85.87,120.79v-10.31h2.23v10.31h-2.23Z"/>
        <path class="cls-7" d="M89.48,117.09c0-2.91,1.99-3.88,3.81-3.88s3.79.96,3.79,3.88-1.99,3.86-3.79,3.86-3.81-.98-3.81-3.86ZM94.83,117.1c0-1.24-.43-2.25-1.55-2.25s-1.56.91-1.56,2.25c0,1.24.42,2.27,1.56,2.27,1.06,0,1.55-.92,1.55-2.27Z"/>
        <path class="cls-7" d="M100.53,119.92v.88h-2.24v-10.31h2.24v4.03c.49-.68,1.18-1.3,2.29-1.3,1.69,0,2.86,1.3,2.86,3.86s-1.18,3.83-2.89,3.83c-1,0-1.7-.36-2.26-.99ZM103.43,117.09c0-1.24-.43-2.02-1.44-2.02-.57,0-1.09.35-1.46.73v2.75c.49.46.89.68,1.49.68.93,0,1.41-.78,1.41-2.13Z"/>
        <path class="cls-7" d="M106.36,118.9c0-1.71,1.45-2.66,4.71-2.93v-.18c0-.54-.28-.89-1-.89-.95,0-1.76.39-2.44.92l-.95-1.28c.74-.67,1.85-1.33,3.71-1.33,2.04,0,2.87,1,2.87,2.92v2.86c0,.89.06,1.43.21,1.81h-2.23c-.1-.31-.17-.67-.17-1.09-.68.77-1.49,1.2-2.59,1.2s-2.12-.74-2.12-2.01ZM111.07,118.58v-1.38c-1.77.18-2.52.63-2.52,1.31,0,.47.34.71.82.71.78,0,1.33-.26,1.7-.64Z"/>
        <path class="cls-7" d="M114.97,120.79v-10.31h2.23v10.31h-2.23Z"/>
      </g>
    </g>
  </g>
  <g>
    <polyline class="cls-1" points="1.3 115.66 46.53 115.66 90.79 71.39 1.3 71.39 1.3 115.66"/>
    <path class="cls-2" d="M54.41,79.72h-8.81s0,20.94,0,20.94l-7.7-20.94h-7.63l-6.57,17.52c-.7-4.42-5.27-5.94-8.86-7.09-2.37-.76-4.89-1.88-4.87-3.12.02-1.02,1.35-1.96,3.99-1.82,1.77.09,3.34.24,6.45,1.74l3.06-5.33c-2.84-1.45-6.76-2.36-9.98-2.36h-.02c-3.75,0-6.87,1.22-8.81,3.22-1.35,1.4-2.08,3.17-2.11,5.14-.05,2.7.94,4.62,3.02,6.15,1.76,1.29,4.01,2.13,5.99,2.74,2.45.76,4.44,1.42,4.42,2.82-.02.51-.21.99-.58,1.38-.61.63-1.55.87-2.84.89-2.49.05-4.35-.34-7.29-2.08l-2.72,5.4c2.94,1.67,6.42,2.65,9.97,2.65h.46c3.09-.06,5.59-.94,7.58-2.55.12-.09.22-.18.32-.28l-.88,2.36h8l1.34-4.08c1.41.48,3.01.75,4.7.75s3.21-.25,4.59-.71l1.29,4.04h13.05v-8.46h2.85c6.88,0,10.95-3.5,10.95-9.37,0-6.54-3.95-9.54-12.37-9.54ZM34.05,97.64c-1.03,0-1.99-.18-2.82-.49l2.79-8.81h.05l2.74,8.83c-.82.29-1.76.47-2.76.47ZM54.92,92.58h-1.94v-7.1h1.94c2.59,0,4.65.86,4.65,3.5s-2.06,3.6-4.65,3.6"/>
  </g>
</svg>